<?xml version="1.0" encoding="UTF-8"?>
<svg version="1.1" xmlns="http://www.w3.org/2000/svg" width="500" height="500">
<path d="M0 0 C0.86109375 0.75667969 1.7221875 1.51335938 2.609375 2.29296875 C3.15916016 2.76653809 3.70894531 3.24010742 4.27539062 3.72802734 C36.4399142 31.61719131 51.30069195 69.11657585 54.29296875 110.97265625 C55.83329122 133.66410081 55.83329122 133.66410081 55.609375 142.29296875 C54.609375 143.29296875 54.609375 143.29296875 51.046875 143.35546875 C49.9125 143.33484375 48.778125 143.31421875 47.609375 143.29296875 C47.53420654 142.01881104 47.45903809 140.74465332 47.3815918 139.43188477 C47.09511764 134.62086547 46.79556843 129.81072813 46.49243164 125.00073242 C46.36396613 122.93453872 46.23886142 120.86813279 46.11743164 118.80151367 C44.22268564 86.66880482 37.94660746 56.2076362 17.609375 30.29296875 C17.19075195 29.75768555 16.77212891 29.22240234 16.34082031 28.67089844 C-2.8980599 4.32637025 -28.57727439 -11.50581194 -58.390625 -19.70703125 C-59.08236816 -19.89910156 -59.77411133 -20.09117188 -60.48681641 -20.2890625 C-93.25946686 -28.86906192 -130.47190777 -21.50529387 -159.390625 -4.70703125 C-169.43449867 1.24564124 -178.04958839 8.15506241 -186.390625 16.29296875 C-187.02097656 16.86144531 -187.65132812 17.42992187 -188.30078125 18.015625 C-204.55798721 33.04297141 -220.6957731 60.1541296 -222.57765186 82.51528907 C-222.64828617 84.95997571 -222.66027152 87.39778772 -222.64891052 89.84347534 C-222.65258623 90.77430502 -222.65626193 91.7051347 -222.66004902 92.66417134 C-222.66998732 95.76689349 -222.66588651 98.86943494 -222.66186523 101.97216797 C-222.66625467 104.20340159 -222.67155762 106.43463357 -222.67770386 108.66586304 C-222.68918779 113.46319454 -222.6946621 118.26048197 -222.69558525 123.057827 C-222.69752878 130.64757032 -222.71559747 138.23722271 -222.73634338 145.82693481 C-222.76409477 156.47104391 -222.78708552 167.11514642 -222.80395508 177.75927734 C-222.80502776 178.4339904 -222.80610044 179.10870345 -222.80720562 179.80386235 C-222.81902281 187.32940416 -222.82922954 194.85494679 -222.83764648 202.38049316 C-222.8407205 205.10896812 -222.84380929 207.83744306 -222.84692383 210.56591797 C-222.84768917 211.23919714 -222.84845451 211.91247631 -222.84924304 212.60615788 C-222.86234442 223.85011531 -222.88716552 235.09401506 -222.92066723 246.33793271 C-222.94242102 253.87852258 -222.95050353 261.41896396 -222.94827449 268.95958304 C-222.94994404 273.65600241 -222.96400982 278.35232524 -222.98148727 283.04870987 C-222.98707509 285.22146145 -222.98758282 287.39423315 -222.98254967 289.56698608 C-222.97638414 292.54104192 -222.98868366 295.51449163 -223.00535583 298.48849487 C-222.99914402 299.34104571 -222.9929322 300.19359655 -222.98653215 301.07198226 C-223.10850709 313.07481774 -227.61074544 322.34976287 -235.703125 331.04296875 C-242.26508299 337.27249274 -250.33904068 341.30065818 -259.46484375 341.2890625 C-271.81591032 340.61484632 -280.57215909 337.59630335 -289.1484375 328.41015625 C-296.83274316 318.87234973 -298.49248118 309.17952182 -297.61816406 297.23876953 C-296.47868765 287.49453455 -290.39201675 279.54916971 -283.015625 273.48046875 C-274.85635392 267.46043513 -266.35160027 266.12301075 -256.3671875 266.1953125 C-255.62101166 266.19672745 -254.87483582 266.1981424 -254.10604858 266.19960022 C-251.74253182 266.20516001 -249.37911273 266.21770486 -247.015625 266.23046875 C-245.40494929 266.23548895 -243.79427209 266.24005095 -242.18359375 266.24414062 C-238.25256701 266.25511624 -234.32161252 266.27235279 -230.390625 266.29296875 C-230.390625 263.65296875 -230.390625 261.01296875 -230.390625 258.29296875 C-234.56780144 258.38801874 -238.74450636 258.49439989 -242.92114258 258.61035156 C-244.33578023 258.64813928 -245.75049772 258.68306941 -247.1652832 258.71484375 C-264.68332657 259.11283977 -280.12841048 260.45050929 -293.421875 273.09375 C-296.76245678 276.82539195 -299.18217629 280.81236608 -301.390625 285.29296875 C-301.7309375 285.95425781 -302.07125 286.61554688 -302.421875 287.296875 C-306.71671134 297.45734431 -305.66909916 311.57049219 -301.71875 321.61328125 C-295.66213359 333.83339553 -287.09061294 341.39548837 -274.390625 346.29296875 C-270.06932961 347.33007964 -265.81414776 347.90987612 -261.390625 348.29296875 C-260.235625 348.41671875 -259.080625 348.54046875 -257.890625 348.66796875 C-244.31299209 347.21322237 -233.85793083 341.0203597 -225.14453125 330.6875 C-214.37108315 315.978984 -215.24545033 298.79981748 -215.18530273 281.40722656 C-215.17570456 279.63207786 -215.1656934 277.85693135 -215.15530396 276.08178711 C-215.12845869 271.29754048 -215.10733988 266.51328419 -215.08730197 261.72900486 C-215.06531548 256.71618997 -215.03798921 251.70340415 -215.01124573 246.69061279 C-214.96148899 237.21371555 -214.91648759 227.73680202 -214.87322336 218.25987315 C-214.8237048 207.46413413 -214.76884125 196.6684243 -214.71354377 185.87271357 C-214.59998526 163.67949254 -214.49309013 141.48624359 -214.390625 119.29296875 C-215.380625 119.29296875 -216.370625 119.29296875 -217.390625 119.29296875 C-217.56944016 109.32899088 -217.72165215 99.71091334 -215.90234375 89.87890625 C-214.74332644 81.75693763 -214.67645006 73.48545844 -214.390625 65.29296875 C-211.420625 65.78796875 -211.420625 65.78796875 -208.390625 66.29296875 C-208.29394531 65.61878906 -208.19726562 64.94460937 -208.09765625 64.25 C-202.15220141 39.38420269 -178.46389399 16.70863758 -157.625 3.62890625 C-127.06691924 -14.64183434 -91.44232195 -19.12022713 -57.0859375 -10.67578125 C-34.74654936 -4.8111169 -15.66348651 7.042803 0.609375 23.29296875 C1.54394531 24.2159375 2.47851562 25.13890625 3.44140625 26.08984375 C33.88918382 57.12529361 38.50807446 100.13737753 38.7355957 141.55053711 C38.609375 143.29296875 38.609375 143.29296875 37.609375 144.29296875 C35.27640067 144.33389812 32.94232275 144.33538598 30.609375 144.29296875 C30.50447754 142.40529785 30.50447754 142.40529785 30.39746094 140.47949219 C30.12842361 135.70726881 29.84043223 130.93633003 29.54736328 126.16552734 C29.42421119 124.1199231 29.30586719 122.0740224 29.19287109 120.02783203 C27.11821407 82.66564581 17.13297437 49.84216873 -11.16796875 23.73046875 C-38.34425336 0.30386861 -70.09445618 -7.67750823 -105.390625 -5.70703125 C-128.84350062 -3.26996308 -150.4215479 7.43722424 -168.390625 22.29296875 C-169.13957031 22.88851562 -169.88851562 23.4840625 -170.66015625 24.09765625 C-182.99459778 34.26688023 -191.82081392 48.5210749 -198.703125 62.79296875 C-199.01644775 63.43186035 -199.32977051 64.07075195 -199.65258789 64.72900391 C-206.14090453 78.71797406 -206.97029023 91.54535912 -206.90478516 106.68774414 C-206.91025527 108.81647751 -206.91750209 110.94520693 -206.92637634 113.07392883 C-206.94163732 117.63220501 -206.94454709 122.19025637 -206.93761063 126.74855232 C-206.92676575 133.96579301 -206.94427485 141.18280144 -206.96542358 148.40000916 C-206.99561143 159.81988268 -207.00737144 171.23968674 -207.01100004 182.65959686 C-207.01765815 203.10310665 -207.04679509 223.546568 -207.0960964 243.99001878 C-207.1125298 251.1551088 -207.11802376 258.32009779 -207.11450601 265.48520482 C-207.11406703 269.95120672 -207.12166192 274.41717088 -207.13118172 278.88316154 C-207.13384983 280.94339724 -207.13313795 283.00364071 -207.12867165 285.06387329 C-207.08501672 306.70860792 -208.73858549 324.70478081 -223.953125 341.41796875 C-232.87618651 349.9432969 -245.1742803 356.05947826 -257.578125 356.66796875 C-273.15428179 355.97136066 -286.88972293 351.45437659 -298.39453125 340.51953125 C-309.62971491 327.9871346 -313.27841665 313.87012401 -312.56982422 297.45263672 C-311.47091284 284.20880834 -303.88626053 271.92176207 -294.09375 263.26171875 C-280.29259032 252.3187874 -266.30807961 251.57897994 -249.453125 251.98046875 C-247.59443152 252.00561912 -245.73570472 252.02842022 -243.87695312 252.04882812 C-239.38066752 252.10320681 -234.88602819 252.18909345 -230.390625 252.29296875 C-230.390625 249.65296875 -230.390625 247.01296875 -230.390625 244.29296875 C-235.58312874 244.36254553 -240.77488001 244.45083661 -245.96679688 244.55541992 C-247.72777861 244.58838205 -249.48885873 244.61650023 -251.25 244.6394043 C-270.73553335 244.89958045 -286.61687074 248.01239923 -301.24609375 262.05078125 C-309.12273545 270.28610426 -315.70805035 280.85572079 -317.390625 292.29296875 C-317.52339844 293.16050781 -317.65617187 294.02804687 -317.79296875 294.921875 C-319.77856155 311.67670864 -315.78537325 327.53763938 -305.421875 340.859375 C-299.79109069 347.60548774 -294.16686108 352.13274291 -286.390625 356.29296875 C-285.71644531 356.67453125 -285.04226563 357.05609375 -284.34765625 357.44921875 C-276.92323321 361.2404135 -268.56272393 362.19741067 -260.390625 363.29296875 C-259.55402344 363.4115625 -258.71742188 363.53015625 -257.85546875 363.65234375 C-244.36539786 364.58807121 -230.28632196 356.52792489 -220.328125 348.29296875 C-208.74014747 337.47144013 -201.13141137 322.12738386 -200.28121638 306.24972892 C-200.10227022 300.27919348 -200.15087854 294.30710306 -200.17944336 288.3347168 C-200.18164789 286.32268347 -200.18295075 284.31064898 -200.1834259 282.2986145 C-200.18634937 277.97935945 -200.19556424 273.66018078 -200.20973015 269.3409481 C-200.23214453 262.4806212 -200.24011277 255.62032202 -200.24623108 248.75996399 C-200.25760042 237.87730537 -200.27830297 226.99468825 -200.30312878 216.11205274 C-200.34735424 196.70676424 -200.38088544 177.30146338 -200.40337282 157.89613754 C-200.41166886 151.10862912 -200.42571926 144.32116451 -200.4442237 137.53367668 C-200.50290191 114.76459905 -200.4360913 92.04204515 -199.390625 69.29296875 C-196.420625 69.78796875 -196.420625 69.78796875 -193.390625 70.29296875 C-192.84535156 69.205 -192.30007812 68.11703125 -191.73828125 66.99609375 C-187.00923199 57.71601009 -182.07484487 49.3276507 -175.390625 41.29296875 C-174.62105469 40.3596875 -173.85148438 39.42640625 -173.05859375 38.46484375 C-154.57754232 17.08773095 -127.55589834 4.26058912 -99.48046875 2.06542969 C-69.05714377 0.48873195 -40.58432716 9.06191572 -17.390625 29.29296875 C7.63826623 51.93680398 18.63704902 80.4538031 20.61474609 113.72875977 C20.73406332 115.7252535 20.86506399 117.72103761 20.99609375 119.71679688 C22.03433358 136.36983415 22.03433358 136.36983415 21.609375 144.29296875 C20.609375 145.29296875 20.609375 145.29296875 17.546875 145.35546875 C16.5775 145.33484375 15.608125 145.31421875 14.609375 145.29296875 C13.12684079 142.32790033 13.33394526 139.25421002 13.21484375 135.99609375 C13.14908371 134.47489258 13.08231144 132.9537349 13.01464844 131.43261719 C12.97980347 130.63400269 12.9449585 129.83538818 12.90905762 129.01257324 C11.29333065 93.44372412 4.7274873 63.38387249 -21.64453125 37.734375 C-41.11373035 20.42534308 -67.43921949 10.45495416 -93.5390625 11.109375 C-116.39839727 12.58114039 -137.53000481 19.68466179 -155.390625 34.29296875 C-156.29167969 35.01871094 -157.19273437 35.74445313 -158.12109375 36.4921875 C-175.29172027 51.14413256 -185.00151635 70.71340494 -190.390625 92.29296875 C-190.57168887 93.01617656 -190.75275274 93.73938437 -190.9393034 94.48450756 C-191.5495849 98.28213637 -191.53028349 102.03780293 -191.52192688 105.87287903 C-191.52404259 106.73565875 -191.52615831 107.59843848 -191.52833813 108.48736304 C-191.53432875 111.37806274 -191.53333862 114.26871867 -191.5324707 117.15942383 C-191.53550298 119.23269729 -191.53902463 121.30597008 -191.54299927 123.37924194 C-191.55088599 127.84593085 -191.55603246 132.31261178 -191.55928993 136.77930641 C-191.56520815 143.85376543 -191.58175828 150.92817435 -191.60063171 158.00260925 C-191.60696926 160.4269571 -191.61329489 162.85130498 -191.61960888 165.27565289 C-191.62277469 166.48988945 -191.6259405 167.70412602 -191.62920225 168.95515764 C-191.67122474 185.42248867 -191.70422643 201.88979668 -191.71655273 218.35717773 C-191.72495426 229.46714212 -191.74752488 240.57698264 -191.7859084 251.68688506 C-191.80560361 257.56043416 -191.81809549 263.43379837 -191.81307411 269.30738258 C-191.80840028 274.84213007 -191.82238165 280.37652815 -191.85008621 285.91120529 C-191.85695299 287.93146175 -191.8571738 289.95175468 -191.84988594 291.97200966 C-191.78032868 313.43913996 -195.61927605 332.71945087 -210.390625 349.29296875 C-211.26267578 350.30423828 -211.26267578 350.30423828 -212.15234375 351.3359375 C-224.32206438 364.52617977 -242.07037994 371.21219554 -259.703125 372.54296875 C-262.390625 372.29296875 -262.390625 372.29296875 -265.16015625 371.34765625 C-268.37159058 370.29918313 -271.43831559 369.72910644 -274.765625 369.16796875 C-291.31807593 365.67220298 -306.05268217 356.20529881 -315.609375 342.18359375 C-325.59226927 325.98328287 -329.90936512 309.15951435 -326.203125 290.23046875 C-323.58156866 279.24431871 -319.29936846 270.21096646 -312.390625 261.29296875 C-311.77832031 260.47441406 -311.16601562 259.65585937 -310.53515625 258.8125 C-304.27506354 251.45774627 -296.02554832 246.17668895 -287.265625 242.29296875 C-286.6459082 242.01469238 -286.02619141 241.73641602 -285.38769531 241.44970703 C-273.55801233 236.5304025 -261.26440373 237.04400492 -248.703125 237.16796875 C-246.92253108 237.17802036 -245.14193167 237.18714235 -243.36132812 237.1953125 C-239.03762241 237.21714927 -234.71418574 237.25155838 -230.390625 237.29296875 C-230.390625 234.65296875 -230.390625 232.01296875 -230.390625 229.29296875 C-235.1191152 229.38792455 -239.84717595 229.49429153 -244.57519531 229.61035156 C-246.17701559 229.64816965 -247.77890729 229.68309573 -249.38085938 229.71484375 C-264.50622356 230.0181092 -278.38601281 230.94657487 -292.390625 237.29296875 C-293.79441406 237.92332031 -293.79441406 237.92332031 -295.2265625 238.56640625 C-313.23287158 247.49216978 -324.33862737 263.96540088 -331.52734375 282.171875 C-337.52501583 301.33516872 -334.10040553 322.14347609 -325.328125 339.79296875 C-315.90894836 356.59855101 -299.77571882 369.44967188 -281.28613281 374.91503906 C-277.02719885 375.97926384 -272.73578641 376.69149056 -268.390625 377.29296875 C-267.49601562 377.421875 -266.60140625 377.55078125 -265.6796875 377.68359375 C-263.9205715 377.91814255 -262.15614093 378.11281406 -260.390625 378.29296875 C-260.390625 378.95296875 -260.390625 379.61296875 -260.390625 380.29296875 C-236.44348612 376.54768163 -215.10938244 368.71047417 -199.96362305 348.65136719 C-196.84972092 344.27398878 -194.30034774 339.68278625 -191.953125 334.85546875 C-191.63512939 334.21287109 -191.31713379 333.57027344 -190.98950195 332.90820312 C-184.90718144 319.59484297 -184.94975027 305.71974254 -184.97412109 291.40820312 C-184.96672727 289.33348097 -184.95801804 287.25876316 -184.94810486 285.18405151 C-184.9249114 279.58438543 -184.91963913 273.98483046 -184.91744566 268.3851223 C-184.91174834 262.49373107 -184.88844535 256.60241018 -184.86685181 250.71105957 C-184.82840416 239.54629862 -184.80414469 228.381558 -184.78572714 217.21674776 C-184.75233248 197.26664793 -184.69412478 177.31661101 -184.63173544 157.36658335 C-184.61044524 150.3829914 -184.59506072 143.39941971 -184.58489585 136.41580296 C-184.57779429 132.0422403 -184.56690345 127.66869197 -184.55525398 123.29513931 C-184.55076029 121.29189989 -184.54786353 119.28865603 -184.54683113 117.28541183 C-184.53885043 103.59612712 -184.12082005 89.96300372 -183.390625 76.29296875 C-180.420625 77.28296875 -180.420625 77.28296875 -177.390625 78.29296875 C-177.184375 77.52984375 -176.978125 76.76671875 -176.765625 75.98046875 C-173.45320836 67.09716959 -168.46016546 59.51675943 -162.390625 52.29296875 C-161.80796875 51.56464844 -161.2253125 50.83632812 -160.625 50.0859375 C-146.362015 32.97634835 -124.42503831 21.99272979 -102.390625 19.29296875 C-77.30642447 17.93538828 -54.82186457 22.32469267 -34.390625 37.29296875 C-32.83021484 38.43572266 -32.83021484 38.43572266 -31.23828125 39.6015625 C-12.13329541 54.57574059 -0.88753864 76.44446367 2.609375 100.29296875 C3.09796297 105.01587094 3.43163174 109.74236565 3.734375 114.48046875 C3.81856689 115.75245117 3.90275879 117.02443359 3.98950195 118.33496094 C5.15701225 136.88737378 5.15701225 136.88737378 4.609375 145.29296875 C3.609375 146.29296875 3.609375 146.29296875 0.546875 146.35546875 C-0.4225 146.33484375 -1.391875 146.31421875 -2.390625 146.29296875 C-3.2240013 141.83545421 -3.59517767 137.50158421 -3.78515625 132.97265625 C-3.85074489 131.54536097 -3.91743717 130.11811607 -3.98510742 128.69091797 C-4.01994232 127.95194275 -4.05477722 127.21296753 -4.09066772 126.45159912 C-5.57308991 96.34857278 -10.6934934 70.56907169 -33.3828125 48.859375 C-51.52782424 33.37720264 -74.72731495 25.71344254 -98.5078125 27.53125 C-121.49777371 30.15943263 -141.48354325 40.40364757 -156.62890625 57.875 C-170.08308933 75.30012644 -175.42022262 94.74247196 -175.69604492 116.47753906 C-175.71588519 117.81093033 -175.73603597 119.14431701 -175.75647163 120.47769928 C-175.81048776 124.09897227 -175.85815132 127.72030311 -175.90419412 131.3416853 C-175.9337933 133.63656495 -175.96511523 135.93141513 -175.99693871 138.22626495 C-176.31318087 161.14543124 -176.48030845 184.06362801 -176.55834436 206.9847393 C-176.57179702 210.81034752 -176.58738399 214.63594695 -176.60275269 218.46154785 C-176.61482795 221.52384401 -176.62676422 224.58614069 -176.63867188 227.6484375 C-176.64163466 228.40363647 -176.64459744 229.15883543 -176.64765 229.93691921 C-176.68079552 238.47764275 -176.70637876 247.01829841 -176.71655273 255.55908203 C-176.72497449 262.56150974 -176.74751611 269.56374139 -176.7859084 276.5660708 C-176.80533428 280.20810409 -176.81818379 283.84984738 -176.81307411 287.49193573 C-176.79264132 305.30997619 -176.81725996 322.64869538 -184.953125 338.98046875 C-185.28973145 339.67269531 -185.62633789 340.36492187 -185.97314453 341.078125 C-196.83609937 362.42287836 -215.70012361 376.55080567 -238.1171875 384.2265625 C-246.2569109 386.79635433 -253.89286566 387.44685172 -262.390625 387.29296875 C-262.885625 385.80796875 -262.885625 385.80796875 -263.390625 384.29296875 C-263.98746094 384.35097656 -264.58429688 384.40898437 -265.19921875 384.46875 C-285.01926618 385.49951027 -302.9835171 374.73069444 -317.60546875 362.4296875 C-331.64930177 349.44261816 -340.86978301 329.37702065 -341.70703125 310.44140625 C-342.02647221 298.41308519 -341.56158384 287.68011936 -337.390625 276.29296875 C-337.09027344 275.38933594 -336.78992188 274.48570312 -336.48046875 273.5546875 C-329.58025341 254.34759458 -313.66349058 238.90703153 -295.6394043 230.02612305 C-279.86860233 222.66345485 -263.87376743 222.13603722 -246.765625 222.23046875 C-245.17317849 222.2354948 -243.58073045 222.24005575 -241.98828125 222.24414062 C-238.12235721 222.25505638 -234.25650847 222.2722598 -230.390625 222.29296875 C-230.390625 219.65296875 -230.390625 217.01296875 -230.390625 214.29296875 C-261.39039064 214.44364697 -261.39039064 214.44364697 -291.390625 221.29296875 C-292.88142578 221.81503906 -292.88142578 221.81503906 -294.40234375 222.34765625 C-315.77909782 230.45126237 -331.23680117 247.55466265 -341.203125 267.66796875 C-350.40211801 289.37631904 -350.57666898 314.24181279 -342.390625 336.29296875 C-333.18426767 358.11011763 -317.03253783 375.87751802 -295.125 385.1796875 C-283.89571396 389.65679132 -273.44126074 391.58520344 -261.390625 392.29296875 C-260.895625 393.77796875 -260.895625 393.77796875 -260.390625 395.29296875 C-235.23653415 392.66492941 -214.55711874 385.45946249 -196.390625 367.29296875 C-195.62105469 366.52339844 -194.85148438 365.75382812 -194.05859375 364.9609375 C-176.61748729 346.56903819 -169.26155376 322.74205704 -169.23240662 297.78269958 C-169.22746864 296.86846114 -169.22253066 295.95422269 -169.21744305 295.01228005 C-169.20217876 291.97229972 -169.19373769 288.93234033 -169.18530273 285.89233398 C-169.17571549 283.70384032 -169.16570492 281.51534847 -169.15530396 279.32685852 C-169.12834051 273.40197228 -169.10728474 267.47707814 -169.08730197 261.55216479 C-169.06538945 255.35418441 -169.03802658 249.15622813 -169.01124573 242.95826721 C-168.96138993 231.22881177 -168.91642478 219.49934291 -168.87322336 207.76986128 C-168.83858349 198.39563738 -168.80159938 189.02142496 -168.76293945 179.6472168 C-168.75885304 178.65609404 -168.75885304 178.65609404 -168.75468408 177.64494859 C-168.74100372 174.32992035 -168.72728146 171.01489228 -168.71354377 167.69986427 C-168.59983295 140.23092168 -168.49297028 112.76195587 -168.390625 85.29296875 C-167.070625 86.28296875 -165.750625 87.27296875 -164.390625 88.29296875 C-164.13482666 87.77500732 -163.87902832 87.2570459 -163.61547852 86.72338867 C-151.97804676 63.36297487 -137.34639646 47.15277139 -112.265625 38.35546875 C-94.09660205 32.66351343 -72.852139 35.44340485 -56.015625 43.60546875 C-50.27363373 46.63506505 -45.31320389 50.08495776 -40.390625 54.29296875 C-39.813125 54.71578125 -39.235625 55.13859375 -38.640625 55.57421875 C-24.89446311 66.01111944 -17.6636923 83.9411726 -14.390625 100.29296875 C-13.83314977 104.63961144 -13.52618898 108.98198795 -13.265625 113.35546875 C-13.18779785 114.52053955 -13.1099707 115.68561035 -13.02978516 116.88598633 C-12.38801831 126.68268509 -11.84454934 136.48581389 -11.390625 146.29296875 C-14.09941835 147.64736543 -16.39995768 147.35798326 -19.390625 147.29296875 C-19.4407373 146.61008789 -19.49084961 145.92720703 -19.54248047 145.22363281 C-20.04720746 138.3909341 -20.57258273 131.56010691 -21.1171875 124.73046875 C-21.28703028 122.59530235 -21.45419982 120.45991937 -21.6171875 118.32421875 C-23.30838981 96.52650006 -28.57817156 78.19223033 -45.015625 62.66796875 C-54.27209578 55.0055673 -64.76070258 50.12446293 -76.390625 47.29296875 C-77.16277344 47.10089844 -77.93492187 46.90882812 -78.73046875 46.7109375 C-97.83716471 43.70885752 -115.05727755 48.76425736 -131.08984375 59.01953125 C-144.51649154 68.90791758 -154.51163101 83.75498823 -157.390625 100.29296875 C-158.18696476 105.6121593 -158.82029951 110.94532855 -159.390625 116.29296875 C-160.050625 116.29296875 -160.710625 116.29296875 -161.390625 116.29296875 C-161.38785962 117.26497128 -161.38509424 118.23697382 -161.38224506 119.23843098 C-161.31544929 142.96213719 -161.26625457 166.6858311 -161.23518848 190.4096117 C-161.21976329 201.88256499 -161.19875753 213.3554559 -161.16430664 224.82836914 C-161.1342705 234.83589987 -161.11501846 244.8433854 -161.10835952 254.85095996 C-161.1044712 260.14285711 -161.09542522 265.43462502 -161.07343483 270.72648048 C-161.05284433 275.72264962 -161.04683604 280.71863812 -161.05130196 285.71484566 C-161.05048672 287.53390235 -161.04465704 289.35296605 -161.03300858 291.17198563 C-160.93935543 306.57181967 -161.75194339 322.56938498 -167.515625 337.04296875 C-167.8142041 337.81825928 -168.1127832 338.5935498 -168.42041016 339.39233398 C-172.91468004 350.60272125 -178.95261434 360.42836751 -187.34765625 369.14453125 C-189.4481684 371.27887255 -189.4481684 371.27887255 -191.296875 373.76953125 C-204.3863367 389.54526307 -229.32827468 400.39666441 -249.390625 402.29296875 C-254.0632661 402.43266627 -258.71790718 402.4157555 -263.390625 402.29296875 C-263.390625 401.30296875 -263.390625 400.31296875 -263.390625 399.29296875 C-265.1540625 399.38578125 -265.1540625 399.38578125 -266.953125 399.48046875 C-290.93147195 399.36807025 -313.24014292 387.08547732 -330.015625 370.734375 C-349.16774417 350.61881081 -357.00286488 325.58882629 -356.671875 298.3515625 C-356.27378241 285.72207521 -353.01962837 273.59449872 -347.390625 262.29296875 C-347.10123047 261.69307129 -346.81183594 261.09317383 -346.51367188 260.47509766 C-335.16566791 237.28392528 -315.58424386 221.16829819 -291.38574219 212.58154297 C-281.74673291 209.42109277 -272.61458023 208.13627645 -262.51953125 208.1953125 C-261.13603737 208.19743492 -261.13603737 208.19743492 -259.72459412 208.19960022 C-256.80073702 208.20516369 -253.87695865 208.21770933 -250.953125 208.23046875 C-248.96158965 208.23548847 -246.9700531 208.24005055 -244.97851562 208.24414062 C-240.11585544 208.25512113 -235.25325353 208.27236036 -230.390625 208.29296875 C-230.390625 205.65296875 -230.390625 203.01296875 -230.390625 200.29296875 C-235.86399458 200.33794685 -241.3362987 200.4085963 -246.80908203 200.50048828 C-248.66088254 200.52827008 -250.51279221 200.54969096 -252.36474609 200.56396484 C-284.14918561 200.82321802 -311.76457704 209.19579382 -334.98046875 231.81640625 C-348.03520124 245.5349387 -356.57218041 262.01531113 -361.390625 280.29296875 C-361.6175 281.11410156 -361.844375 281.93523437 -362.078125 282.78125 C-367.84191697 307.87776087 -361.66991238 336.67245164 -348.58544922 358.43017578 C-332.87376599 382.92550538 -309.4740932 398.35818739 -281.40234375 405 C-274.46458937 406.39558301 -267.44518063 406.86677938 -260.390625 407.29296875 C-260.390625 408.61296875 -260.390625 409.93296875 -260.390625 411.29296875 C-232.07771539 407.65546205 -208.5840721 399.84260278 -187.390625 380.29296875 C-186.30394531 379.34550781 -186.30394531 379.34550781 -185.1953125 378.37890625 C-167.48803523 362.10541661 -155.44414368 335.19608613 -154.29238689 311.25055516 C-154.24912909 308.95491122 -154.23518474 306.6609357 -154.23240662 304.36488342 C-154.22746864 303.4891058 -154.22253066 302.61332817 -154.21744305 301.71101183 C-154.20213813 298.78919525 -154.1937265 295.86740054 -154.18530273 292.94555664 C-154.1757187 290.84602671 -154.16570831 288.74649868 -154.15530396 286.64697266 C-154.12830579 280.95543216 -154.1072687 275.26388342 -154.08730197 269.5723145 C-154.065411 263.62122809 -154.03803754 257.67016696 -154.01124573 251.71910095 C-153.96136089 240.45352872 -153.91640645 229.18794242 -153.87322336 217.92234272 C-153.82381501 205.09532186 -153.76891022 192.26832638 -153.71354377 179.44133008 C-153.59978834 153.05856665 -153.4929353 126.67577887 -153.390625 100.29296875 C-152.400625 100.95296875 -151.410625 101.61296875 -150.390625 102.29296875 C-149.89755859 100.67841797 -149.89755859 100.67841797 -149.39453125 99.03125 C-144.05058599 82.31508167 -135.48936339 68.57918955 -119.64355469 59.9777832 C-103.89921337 51.89903785 -88.42288327 50.02361385 -71.390625 55.29296875 C-53.94174152 61.950872 -42.25732649 73.15815703 -34.578125 90.23046875 C-29.44666731 102.12214033 -29.83327937 115.81592613 -29.265625 128.54296875 C-29.17903395 130.3672184 -29.09179921 132.19143761 -29.00390625 134.015625 C-28.79206251 138.44109062 -28.58891294 142.86687588 -28.390625 147.29296875 C-31.030625 147.62296875 -33.670625 147.95296875 -36.390625 148.29296875 C-36.46579346 147.08350586 -36.54096191 145.87404297 -36.6184082 144.62792969 C-36.90359804 140.08712605 -37.20349821 135.54738762 -37.50756836 131.0078125 C-37.63650551 129.05299008 -37.76159457 127.09790951 -37.88256836 125.14257812 C-39.08322521 105.81348514 -41.10688503 87.04304623 -56.390625 73.29296875 C-68.35712986 64.12713524 -81.41331009 60.16290567 -96.390625 61.29296875 C-105.68722878 62.95138431 -113.75822954 65.6904657 -121.390625 71.29296875 C-122.09703125 71.80601563 -122.8034375 72.3190625 -123.53125 72.84765625 C-134.45823822 81.56422319 -140.00172213 94.3616668 -141.640625 107.91796875 C-141.9132059 110.37502443 -142.15853558 112.83159938 -142.390625 115.29296875 C-143.710625 115.62296875 -145.030625 115.95296875 -146.390625 116.29296875 C-146.38693783 117.29497189 -146.38325066 118.29697502 -146.37945175 119.32934189 C-146.290382 143.78776159 -146.22479371 168.24616008 -146.18337631 192.7047081 C-146.16281128 204.53301533 -146.13480739 216.36121498 -146.08886719 228.18945312 C-146.04881301 238.50719412 -146.02314824 248.82485714 -146.01427102 259.14267373 C-146.00908756 264.59840574 -145.99703289 270.05391482 -145.96770477 275.50957489 C-145.94024106 280.6609081 -145.9322415 285.81192984 -145.93819427 290.96332932 C-145.93710771 292.83841275 -145.92934046 294.71350831 -145.9138031 296.58852768 C-145.64035053 331.33845866 -157.48559649 361.27643091 -181.765625 386.10546875 C-198.61293885 402.75133111 -221.24786172 413.13472752 -244.390625 417.29296875 C-245.15246094 417.44894531 -245.91429687 417.60492188 -246.69921875 417.765625 C-252.12167641 418.71482785 -257.15809203 417.78214967 -262.390625 416.29296875 C-262.720625 415.96296875 -263.050625 415.63296875 -263.390625 415.29296875 C-265.06283303 414.98373253 -266.74506275 414.72835691 -268.4296875 414.49609375 C-292.90921457 410.9689037 -314.76981423 404.31166431 -333.390625 387.29296875 C-334.2259375 386.59816406 -335.06125 385.90335937 -335.921875 385.1875 C-356.23103082 367.98113187 -367.44155683 342.78642074 -371.140625 316.79296875 C-371.25540827 315.29504711 -371.33343551 313.79419285 -371.390625 312.29296875 C-371.4421875 311.08898437 -371.49375 309.885 -371.546875 308.64453125 C-372.36186069 280.19412158 -363.54966548 252.61627121 -344.390625 231.29296875 C-343.81828125 230.59042969 -343.2459375 229.88789063 -342.65625 229.1640625 C-325.36085775 208.12133527 -297.9981007 196.2338515 -271.390625 193.29296875 C-264.20983349 192.85907739 -257.01718027 193.00446497 -249.828125 193.10546875 C-247.93034934 193.12056525 -246.03256186 193.13424474 -244.13476562 193.14648438 C-239.55308528 193.17904521 -234.97199172 193.23054359 -230.390625 193.29296875 C-230.390625 190.65296875 -230.390625 188.01296875 -230.390625 185.29296875 C-235.34899099 185.38821026 -240.30696243 185.49462068 -245.26489258 185.61035156 C-246.94321541 185.64807746 -248.62160379 185.68301546 -250.30004883 185.71484375 C-265.12973369 185.99926084 -280.2075109 186.37886495 -294.453125 190.91796875 C-295.28328125 191.17594238 -296.1134375 191.43391602 -296.96875 191.69970703 C-317.56352829 198.38197143 -338.02492517 211.09938353 -351.390625 228.29296875 C-352.34001953 229.50533203 -352.34001953 229.50533203 -353.30859375 230.7421875 C-367.84606769 250.00363749 -377.38921329 272.95431023 -378.390625 297.29296875 C-378.43058594 298.00324219 -378.47054688 298.71351563 -378.51171875 299.4453125 C-379.44026274 331.39814971 -367.8756876 361.29175532 -346.296875 384.6796875 C-338.46946911 392.94363694 -330.24141584 399.59582347 -320.390625 405.29296875 C-319.76462402 405.65616211 -319.13862305 406.01935547 -318.49365234 406.39355469 C-300.26189236 416.72753508 -281.06160643 420.31793194 -260.390625 422.29296875 C-260.390625 424.60296875 -260.390625 426.91296875 -260.390625 429.29296875 C-296.88146501 428.27367154 -329.09231229 414.12905187 -354.3203125 387.70703125 C-379.14517982 360.71405324 -386.84881714 326.63621765 -385.60205078 290.89111328 C-385.14386161 283.09343205 -383.7073394 275.74018476 -381.390625 268.29296875 C-381.18163574 267.61314941 -380.97264648 266.93333008 -380.75732422 266.23291016 C-370.49983404 234.04667317 -348.08828987 207.78954269 -318.33984375 191.94604492 C-295.98736148 180.52294992 -272.91190144 178.10022237 -248.203125 178.23046875 C-239.8809375 178.26140625 -239.8809375 178.26140625 -231.390625 178.29296875 C-231.060625 159.15296875 -230.730625 140.01296875 -230.390625 120.29296875 C-231.710625 120.29296875 -233.030625 120.29296875 -234.390625 120.29296875 C-234.69336451 109.02433139 -234.53153084 98.26391966 -232.53466797 87.15185547 C-231.18259086 79.54702606 -230.69921383 72.00768957 -230.390625 64.29296875 C-229.76897461 64.20104248 -229.14732422 64.10911621 -228.50683594 64.0144043 C-226.30622258 63.4992608 -226.30622258 63.4992608 -225.32910156 61.74926758 C-225.06581055 61.08950928 -224.80251953 60.42975098 -224.53125 59.75 C-224.22453369 59.01273682 -223.91781738 58.27547363 -223.60180664 57.51586914 C-223.2846167 56.72043701 -222.96742676 55.92500488 -222.640625 55.10546875 C-217.16817044 42.16019464 -210.8073299 30.86637126 -201.390625 20.29296875 C-200.69380615 19.50575439 -200.69380615 19.50575439 -199.98291016 18.70263672 C-149.37950244 -38.21575551 -60.1491954 -50.56165586 0 0 Z M-284.390625 284.29296875 C-289.66465965 291.12768712 -292.41024813 298.55558282 -291.390625 307.29296875 C-289.22434106 317.49189681 -284.6281722 323.99929149 -276.390625 330.29296875 C-269.54917549 334.31735081 -262.54810195 335.43564328 -254.78125 333.71484375 C-245.44545112 330.81388929 -238.26006736 325.00782111 -233.328125 316.54296875 C-230.42852692 310.97078738 -230.24848745 305.55425379 -230.29296875 299.3671875 C-230.2943837 298.61959671 -230.29579865 297.87200592 -230.29725647 297.10176086 C-230.30282736 294.7279551 -230.3153744 292.35424572 -230.328125 289.98046875 C-230.33314377 288.36523574 -230.33770601 286.75000125 -230.34179688 285.13476562 C-230.35278725 281.1874632 -230.37003168 277.24023228 -230.390625 273.29296875 C-235.17368686 273.19304138 -239.95612257 273.12100921 -244.73999023 273.07324219 C-246.36249393 273.05330062 -247.98492742 273.02613701 -249.60717773 272.99121094 C-263.17300204 272.70675949 -274.76771541 273.53280621 -284.390625 284.29296875 Z " fill="#2548F3" transform="translate(399.390625,51.70703125)"/>
<path d="M0 0 C2.46033606 2.24077111 4.8239606 4.56918779 7.1784668 6.92041016 C8.11303711 7.84337891 9.04760742 8.76634766 10.01049805 9.71728516 C40.45827562 40.75273501 45.07716625 83.76481893 45.3046875 125.17797852 C45.1784668 126.92041016 45.1784668 126.92041016 44.1784668 127.92041016 C41.84549247 127.96133953 39.51141455 127.96282739 37.1784668 127.92041016 C37.07356934 126.03273926 37.07356934 126.03273926 36.96655273 124.10693359 C36.69751541 119.33471022 36.40952403 114.56377144 36.11645508 109.79296875 C35.99330299 107.74736451 35.87495899 105.70146381 35.76196289 103.65527344 C33.68730587 66.29308722 23.70206617 33.46961014 -4.59887695 7.35791016 C-31.77516157 -16.06868998 -63.52536438 -24.05006682 -98.8215332 -22.07958984 C-122.27440883 -19.64252167 -143.8524561 -8.93533435 -161.8215332 5.92041016 C-162.57047852 6.51595703 -163.31942383 7.11150391 -164.09106445 7.72509766 C-176.42550598 17.89432164 -185.25172212 32.14851631 -192.1340332 46.42041016 C-192.44735596 47.05930176 -192.76067871 47.69819336 -193.08349609 48.35644531 C-199.57181273 62.34541547 -200.40119843 75.17280052 -200.33569336 90.31518555 C-200.34116347 92.44391892 -200.34841029 94.57264834 -200.35728455 96.70137024 C-200.37254552 101.25964642 -200.37545529 105.81769777 -200.36851883 110.37599373 C-200.35767395 117.59323442 -200.37518305 124.81024284 -200.39633179 132.02745056 C-200.42651963 143.44732408 -200.43827964 154.86712815 -200.44190824 166.28703827 C-200.44856635 186.73054805 -200.47770329 207.17400941 -200.5270046 227.61746019 C-200.543438 234.78255021 -200.54893196 241.9475392 -200.54541421 249.11264622 C-200.54497523 253.57864812 -200.55257012 258.04461228 -200.56208992 262.51060295 C-200.56475803 264.57083864 -200.56404616 266.63108212 -200.55957985 268.6913147 C-200.51592492 290.33604933 -202.1694937 308.33222222 -217.3840332 325.04541016 C-226.30709471 333.5707383 -238.6051885 339.68691966 -251.0090332 340.29541016 C-266.58518999 339.59880207 -280.32063113 335.08181799 -291.82543945 324.14697266 C-303.06062311 311.61457601 -306.70932485 297.49756542 -306.00073242 281.08007812 C-304.90182105 267.83624974 -297.31716873 255.54920348 -287.5246582 246.88916016 C-273.56910842 235.82381299 -259.42103325 235.21267204 -242.3840332 235.60791016 C-240.47716184 235.63305821 -238.57025804 235.65585974 -236.66333008 235.67626953 C-232.04857796 235.73067157 -227.43542673 235.81657279 -222.8215332 235.92041016 C-222.8215332 237.90041016 -222.8215332 239.88041016 -222.8215332 241.92041016 C-223.72282959 241.94022949 -224.62412598 241.96004883 -225.55273438 241.98046875 C-228.96181611 242.05951106 -232.37053706 242.14622219 -235.77929688 242.23779297 C-237.24243912 242.27560109 -238.70565922 242.31052852 -240.16894531 242.34228516 C-257.75653767 242.72842784 -273.44417299 243.96843713 -286.8527832 256.72119141 C-290.19336498 260.45283336 -292.61308449 264.43980749 -294.8215332 268.92041016 C-295.1618457 269.58169922 -295.5021582 270.24298828 -295.8527832 270.92431641 C-300.14761954 281.08478571 -299.10000736 295.19793359 -295.1496582 305.24072266 C-289.0930418 317.46083694 -280.52152114 325.02292978 -267.8215332 329.92041016 C-263.50023781 330.95752105 -259.24505597 331.53731752 -254.8215332 331.92041016 C-253.6665332 332.04416016 -252.5115332 332.16791016 -251.3215332 332.29541016 C-237.74390029 330.84066377 -227.28883903 324.64780111 -218.57543945 314.31494141 C-207.80199135 299.6064254 -208.67635854 282.42725888 -208.61621094 265.03466797 C-208.60661276 263.25951927 -208.59660161 261.48437276 -208.58621216 259.70922852 C-208.5593669 254.92498189 -208.53824808 250.1407256 -208.51821017 245.35644627 C-208.49622368 240.34363138 -208.46889741 235.33084556 -208.44215393 230.3180542 C-208.39239719 220.84115695 -208.34739579 211.36424342 -208.30413157 201.88731456 C-208.254613 191.09157553 -208.19974946 180.2958657 -208.14445198 169.50015497 C-208.03089346 147.30693394 -207.92399833 125.113685 -207.8215332 102.92041016 C-208.8115332 102.92041016 -209.8015332 102.92041016 -210.8215332 102.92041016 C-211.00034836 92.95643228 -211.15256035 83.33835474 -209.33325195 73.50634766 C-208.17423464 65.38437904 -208.10735826 57.11289984 -207.8215332 48.92041016 C-205.8415332 49.25041016 -203.8615332 49.58041016 -201.8215332 49.92041016 C-201.72485352 49.24623047 -201.62817383 48.57205078 -201.52856445 47.87744141 C-195.58310961 23.01164409 -171.89480219 0.33607899 -151.0559082 -12.74365234 C-103.56783906 -41.13686851 -41.73356613 -36.65991813 0 0 Z " fill="#1950F4" transform="translate(392.821533203125,68.07958984375)"/>
<path d="M0 0 C23.70175717 19.22810427 37.86293296 44.87790036 41.88769531 75.11425781 C42.30962673 79.58846395 42.62643843 84.0640057 42.89306641 88.55004883 C43.01238363 90.54654256 43.1433843 92.54232668 43.27441406 94.53808594 C44.31265389 111.19112322 44.31265389 111.19112322 43.88769531 119.11425781 C42.88769531 120.11425781 42.88769531 120.11425781 39.82519531 120.17675781 C38.85582031 120.15613281 37.88644531 120.13550781 36.88769531 120.11425781 C35.4051611 117.14918939 35.61226557 114.07549908 35.49316406 110.81738281 C35.42740402 109.29618164 35.36063175 107.77502397 35.29296875 106.25390625 C35.24070129 105.0559845 35.24070129 105.0559845 35.18737793 103.8338623 C33.57165096 68.26501318 27.00580761 38.20516155 0.63378906 12.55566406 C-18.83541004 -4.75336785 -45.16089917 -14.72375678 -71.26074219 -14.06933594 C-94.12007696 -12.59757055 -115.2516845 -5.49404914 -133.11230469 9.11425781 C-134.01335937 9.84 -134.91441406 10.56574219 -135.84277344 11.31347656 C-153.79153015 26.62941142 -167.28769068 50.7547752 -169.31762695 74.51782227 C-169.37261353 75.73538208 -169.37261353 75.73538208 -169.42871094 76.97753906 C-169.47060547 77.86376953 -169.5125 78.75 -169.55566406 79.66308594 C-169.59498047 80.57509766 -169.63429687 81.48710937 -169.67480469 82.42675781 C-169.71798828 83.35810547 -169.76117188 84.28945312 -169.80566406 85.24902344 C-169.91127694 87.53730235 -170.01338221 89.82568153 -170.11230469 92.11425781 C-173.57730469 93.10425781 -173.57730469 93.10425781 -177.11230469 94.11425781 C-178.85262529 92.37393721 -178.24457516 90.11150206 -178.25097656 87.79125977 C-178.24646484 87.01097412 -178.24195313 86.23068848 -178.23730469 85.42675781 C-178.23537109 84.6161792 -178.2334375 83.80560059 -178.23144531 82.97045898 C-178.14610738 70.01450155 -177.59689235 57.06022335 -177.11230469 44.11425781 C-175.13230469 44.44425781 -173.15230469 44.77425781 -171.11230469 45.11425781 C-170.56703125 44.02628906 -170.02175781 42.93832031 -169.45996094 41.81738281 C-164.73091168 32.53729915 -159.79652456 24.14893976 -153.11230469 16.11425781 C-152.34273437 15.18097656 -151.57316406 14.24769531 -150.78027344 13.28613281 C-113.24643814 -30.1294182 -44.81342763 -35.04187466 0 0 Z " fill="#055AF5" transform="translate(377.1123046875,76.8857421875)"/>
<path d="M0 0 C2.41550774 0.00543088 4.83083527 -0.00001223 7.24633789 -0.00634766 C8.78474976 -0.00568802 10.32316151 -0.00440925 11.86157227 -0.00244141 C12.58232437 -0.00446564 13.30307648 -0.00648987 14.04566956 -0.00857544 C19.09639971 0.01536294 19.09639971 0.01536294 21.32641602 1.13037109 C21.32641602 3.11037109 21.32641602 5.09037109 21.32641602 7.13037109 C19.73325562 7.1601001 19.73325562 7.1601001 18.10791016 7.19042969 C14.0800421 7.26783178 10.05247403 7.35631188 6.02490234 7.44775391 C4.29807556 7.48549875 2.57118455 7.52043436 0.84423828 7.55224609 C-14.12939889 7.83123089 -29.34933942 8.17129865 -43.73608398 12.75537109 C-44.56624023 13.01334473 -45.39639648 13.27131836 -46.25170898 13.53710938 C-66.84648728 20.21937377 -87.30788416 32.93678588 -100.67358398 50.13037109 C-101.30651367 50.93861328 -101.93944336 51.74685547 -102.59155273 52.57958984 C-117.12902667 71.84103984 -126.67217227 94.79171257 -127.67358398 119.13037109 C-127.71354492 119.84064453 -127.75350586 120.55091797 -127.79467773 121.28271484 C-128.72322172 153.23555205 -117.15864659 183.12915766 -95.57983398 206.51708984 C-87.75242809 214.78103929 -79.52437483 221.43322582 -69.67358398 227.13037109 C-69.04758301 227.49356445 -68.42158203 227.85675781 -67.77661133 228.23095703 C-49.54485135 238.56493743 -30.34456541 242.15533429 -9.67358398 244.13037109 C-9.67358398 246.44037109 -9.67358398 248.75037109 -9.67358398 251.13037109 C-46.16442399 250.11107389 -78.37527127 235.96645421 -103.60327148 209.54443359 C-128.42813881 182.55145559 -136.13177613 148.47361999 -134.88500977 112.72851562 C-134.4268206 104.9308344 -132.99029838 97.5775871 -130.67358398 90.13037109 C-130.46459473 89.45055176 -130.25560547 88.77073242 -130.0402832 88.0703125 C-119.78279302 55.88407551 -97.37124885 29.62694503 -67.62280273 13.78344727 C-46.166121 2.81814547 -23.78696768 -0.06389722 0 0 Z " fill="#760EF1" transform="translate(148.673583984375,229.86962890625)"/>
<path d="M0 0 C3.34182748 1.87336113 4.88909144 2.88526138 7 6 C8.08542939 11.67203847 7.90552411 17.31430749 7.82641602 23.07080078 C7.82771637 24.83232079 7.8320723 26.5938408 7.83924866 28.35534668 C7.84980083 33.1376346 7.81684352 37.9187417 7.7756207 42.70082712 C7.73920287 47.72295132 7.74105363 52.74506861 7.73826599 57.76730347 C7.72812189 66.21600458 7.69192126 74.66426325 7.63793945 83.11279297 C7.5691095 93.90146509 7.54106352 104.6898187 7.52694798 115.47868538 C7.51457623 124.80380116 7.48484531 134.12885056 7.4515636 143.45391226 C7.44147981 146.42364988 7.43337645 149.39338849 7.42541695 152.36313248 C7.41153928 157.06968847 7.38679497 161.77608114 7.35426903 166.48254395 C7.34379561 168.19311747 7.3363981 169.90371362 7.33261871 171.61431503 C7.31004185 180.66808265 6.97413552 189.61534582 6.08824158 198.62936401 C5.96934093 199.84025544 5.96934093 199.84025544 5.84803826 201.07560933 C3.12195447 226.57365938 -7.56327298 250.42249711 -24 270 C-24.70640625 270.88171875 -25.4128125 271.7634375 -26.140625 272.671875 C-37.46054657 286.17192962 -54.03447697 295.55002675 -71 300 C-73.23828125 299.5625 -73.23828125 299.5625 -75 299 C-74.15179688 298.61070312 -73.30359375 298.22140625 -72.4296875 297.8203125 C-42.71415233 283.64828803 -19.99023996 259.03557655 -8.70654297 228.02539062 C-3.76073257 213.84762869 -1.70124949 200.24522946 -1.39477539 185.2956543 C-1.3574029 183.75538475 -1.31970831 182.21512298 -1.28171635 180.67486858 C-0.87717541 163.42952365 -0.77811085 146.18029806 -0.69667697 128.93098283 C-0.67426621 124.37207796 -0.64715652 119.81320062 -0.62062073 115.25431824 C-0.57141604 106.68483506 -0.52622068 98.11533601 -0.48259836 89.5458228 C-0.43259378 79.76283317 -0.37791769 69.97987122 -0.32291877 60.19690859 C-0.2102128 40.13129836 -0.10314723 20.06566151 0 0 Z " fill="#0560F4" transform="translate(262,168)"/>
<path d="M0 0 C13.1247839 12.12308807 15.08006533 26.21756014 16.00146484 43.31274414 C16.12144362 45.53773838 16.25123552 47.76199233 16.3828125 49.98632812 C16.74486091 56.27866287 17.04388152 62.53830648 16.99609375 68.84375 C14.35609375 69.17375 11.71609375 69.50375 8.99609375 69.84375 C8.92616211 68.59875732 8.85623047 67.35376465 8.78417969 66.07104492 C8.51762917 61.40507306 8.22901602 56.74067256 7.93408203 52.07641602 C7.80999432 50.06635628 7.69170989 48.05592881 7.57958984 46.04516602 C6.58242401 25.24661752 6.58242401 25.24661752 -4.00390625 7.84375 C-11.91396752 1.16346793 -20.87777381 -1.83946122 -31.20703125 -1.50390625 C-41.42625148 -0.23364005 -49.87799917 4.71870402 -56.31640625 12.65625 C-60.71423019 18.94227009 -62.24138984 25.52923923 -62.79296875 33.09375 C-63.00390625 34.84375 -63.00390625 34.84375 -64.00390625 35.84375 C-66.33688058 35.88467937 -68.6709585 35.88616723 -71.00390625 35.84375 C-71.77511897 24.46836235 -68.43895835 13.57041471 -61.00390625 4.84375 C-44.68839686 -12.4112321 -18.76096359 -15.78462534 0 0 Z " fill="#076EF0" transform="translate(337.00390625,131.15625)"/>
<path d="M0 0 C1.46979891 0.00138269 1.46979891 0.00138269 2.96929073 0.00279331 C4.64997646 0.00073132 4.64997646 0.00073132 6.36461544 -0.00137234 C7.60466839 0.00222294 8.84472134 0.00581821 10.12235165 0.00952244 C12.06840801 0.0093034 12.06840801 0.0093034 14.05377865 0.00907993 C17.62180117 0.00879197 21.18979036 0.01468851 24.75780511 0.02165389 C28.48274808 0.02788762 32.20769174 0.02849124 35.93263912 0.0296793 C42.99101551 0.03279256 50.04937648 0.04100587 57.10774606 0.05102879 C65.14147159 0.06219009 73.17519784 0.06770042 81.20892918 0.07272422 C97.73924245 0.08318849 114.2695402 0.10078783 130.79984188 0.12304783 C130.79984188 2.43304783 130.79984188 4.74304783 130.79984188 7.12304783 C86.57984188 7.12304783 42.35984188 7.12304783 -3.20015812 7.12304783 C-3.20015812 0.17897464 -3.20015812 0.17897464 0 0 Z " fill="#B972E5" transform="translate(273.20015811920166,274.8769521713257)"/>
<path d="M0 0 C0.74617584 0.00141495 1.49235168 0.0028299 2.26113892 0.00428772 C4.62465568 0.00984751 6.98807477 0.02239236 9.3515625 0.03515625 C10.96223821 0.04017645 12.57291541 0.04473845 14.18359375 0.04882812 C18.11462049 0.05980374 22.04557498 0.07704029 25.9765625 0.09765625 C25.9765625 2.40765625 25.9765625 4.71765625 25.9765625 7.09765625 C24.97391357 7.10700195 23.97126465 7.11634766 22.93823242 7.12597656 C19.16745879 7.16627913 15.39746706 7.2321421 11.62719727 7.30517578 C10.00490472 7.33315466 8.38248169 7.35448228 6.76000977 7.36865234 C-5.62710199 7.48324172 -16.84275653 8.07079967 -26.30078125 17.1015625 C-31.87299465 23.55825422 -34.37127779 30.31546676 -34.2421875 38.8515625 C-33.40677017 47.42950831 -30.05284675 54.51554527 -23.6484375 60.28515625 C-18.20412967 64.71226856 -12.77754571 66.58380441 -6.0234375 68.09765625 C-6.0234375 70.40765625 -6.0234375 72.71765625 -6.0234375 75.09765625 C-17.78145935 73.31870482 -27.23591381 69.7828364 -34.70703125 60.140625 C-41.03722218 50.31661949 -42.4784345 40.52477701 -41.0234375 29.09765625 C-38.50920177 18.21199874 -31.27395782 10.01861747 -22.0234375 4.09765625 C-14.9472938 0.57891813 -7.78882897 -0.05640251 0 0 Z " fill="#6116F4" transform="translate(143.0234375,317.90234375)"/>
<path d="M0 0 C37.95 0 75.9 0 115 0 C115 2.31 115 4.62 115 7 C101.9253747 7.02324561 88.85075437 7.04097711 75.77611256 7.05181217 C69.70400572 7.05701437 63.63191311 7.0640633 57.55981445 7.07543945 C51.69186451 7.08636341 45.82392819 7.09229686 39.95596886 7.09487724 C37.72546868 7.09671444 35.49496919 7.10030179 33.26447487 7.10573006 C10.83625962 7.1581055 10.83625962 7.1581055 0 6 C0 4.02 0 2.04 0 0 Z " fill="#B363E6" transform="translate(270,305)"/>
<path d="M0 0 C36.63 0 73.26 0 111 0 C111 1.98 111 3.96 111 6 C74.37 6 37.74 6 0 6 C0 4.02 0 2.04 0 0 Z " fill="#B15EE6" transform="translate(270,261)"/>
<path d="M0 0 C10.90991196 -0.023235 21.81981796 -0.04097177 32.72974968 -0.05181217 C37.79640455 -0.05701666 42.86304241 -0.06406985 47.9296875 -0.07543945 C52.82504568 -0.08635515 57.72038757 -0.09229515 62.61575699 -0.09487724 C64.4775226 -0.0967159 66.33928738 -0.10030619 68.20104599 -0.10573006 C86.16045568 -0.15594041 86.16045568 -0.15594041 95 1 C95 2.98 95 4.96 95 7 C63.65 7 32.3 7 0 7 C0 4.69 0 2.38 0 0 Z " fill="#AC51E7" transform="translate(271,319)"/>
<path d="M0 0 C28.05 0 56.1 0 85 0 C85 2.31 85 4.62 85 7 C56.95 7 28.9 7 0 7 C0 4.69 0 2.38 0 0 Z " fill="#A847E8" transform="translate(270,246)"/>
<path d="M0 0 C23.76 0 47.52 0 72 0 C72 2.31 72 4.62 72 7 C62.76002448 7.02312524 53.52005886 7.04091601 44.28006077 7.05181217 C39.99000085 7.05704061 35.69996067 7.06413753 31.40991211 7.07543945 C27.273206 7.08626975 23.13651892 7.09227714 18.99979973 7.09487724 C17.41807696 7.09673124 15.83635529 7.10035136 14.25464058 7.10573006 C12.04677162 7.1129424 9.83898227 7.11399086 7.63110352 7.11352539 C5.74247337 7.11685631 5.74247337 7.11685631 3.81568909 7.12025452 C1 7 1 7 0 6 C0 4.02 0 2.04 0 0 Z " fill="#A43CE9" transform="translate(270,290)"/>
<path d="M0 0 C16.83 0 33.66 0 51 0 C51 2.31 51 4.62 51 7 C34.17 7 17.34 7 0 7 C0 4.69 0 2.38 0 0 Z " fill="#9D2AEA" transform="translate(270,231)"/>
<path d="M0 0 C2 1 2 1 2 1 Z " fill="#0030FF" transform="translate(185,468)"/>
</svg>
